#!OML:ASF H:\MichaelJackson\Top Level 1\Subject 1\Session 1\male.ASF
:FULLY-SPECIFIED
:DEGREES
74
root -15.5647 17.0381 -18.5365 9.81524 -3.42141 -0.986971
lowerback -3.77108 1.42338 -0.680025
upperback -1.54589 1.92041 0.0676121
thorax 0.502882 0.962762 0.529044
lowerneck -5.41501 -1.67595 0.866888
upperneck -10.844 -2.13866 1.71298
head -2.4921 -1.13773 0.409012
rclavicle 1.65923e-014 1.68967e-015
rhumerus -39.3236 7.49276 -95.703
rradius 38.6711
rwrist 12.9847
rhand -21.3819 -19.1119
rfingers 7.12502
rthumb 5.00563 -49.0328
lclavicle 1.65923e-014 1.68967e-015
lhumerus -40.5133 -17.5707 94.613
lradius 42.5132
lwrist -0.78269
lhand -4.69805 13.0387
lfingers 7.12502
lthumb 21.0835 41.9125
rfemur -21.5925 -9.22583 19.8533
rtibia 41.5167
rfoot -19.9365 -15.1666
rtoes -3.77549
lfemur -23.1738 5.87297 -21.7335
ltibia 36.6338
lfoot -24.257 2.30377
ltoes 10.5581
75
root -15.5764 17.0293 -18.5269 9.71419 -3.34077 -0.900713
lowerback -3.6953 1.43854 -0.664424
upperback -1.53471 1.94014 -0.00278949
thorax 0.474732 0.972474 0.447116
lowerneck -5.38691 -1.6851 0.877727
upperneck -10.75 -2.1564 1.65369
head -2.46623 -1.14481 0.387859
rclavicle -3.77939e-014 -6.26172e-015
rhumerus -39.3293 7.41967 -95.7125
rradius 38.7242
rwrist 12.7137
rhand -21.4267 -19.2874
rfingers 7.12502
rthumb 4.96239 -49.2093
lclavicle -3.77939e-014 -6.26172e-015
lhumerus -40.4496 -17.1082 94.1758
lradius 42.7508
lwrist -0.782951
lhand -4.68598 13.2527
lfingers 7.12502
lthumb 21.0951 42.1252
rfemur -21.137 -8.63707 19.5936
rtibia 41.3343
rfoot -20.03 -14.9977
rtoes -5.28626
lfemur -23.2028 5.93835 -21.7731
ltibia 36.9448
lfoot -24.299 2.23678
ltoes 10.2424
76
root -15.5889 17.0213 -18.5176 9.62629 -3.19065 -0.854581
lowerback -3.6527 1.43462 -0.616136
upperback -1.49515 1.9335 -0.0482801
thorax 0.494752 0.968706 0.372794
lowerneck -5.38614 -1.69273 0.869888
upperneck -10.6875 -2.17089 1.60138
head -2.44587 -1.1499 0.372071
rclavicle 3.09234e-014 6.26172e-015
rhumerus -39.2672 7.36705 -95.696
rradius 38.7582
rwrist 12.4934
rhand -21.4245 -19.4435
rfingers 7.12502
rthumb 4.9645 -49.3654
lclavicle 3.09234e-014 6.26172e-015
lhumerus -40.3368 -16.5764 93.7213
lradius 42.9924
lwrist -0.746903
lhand -4.74035 13.4011
lfingers 7.12502
lthumb 21.0429 42.2794
rfemur -20.6661 -8.07749 19.4163
rtibia 41.008
rfoot -20.2206 -14.9423
rtoes -5.87102
lfemur -23.2995 5.95901 -21.7596
ltibia 37.3377
lfoot -24.3237 2.15213
ltoes 9.93889
77
root -15.602 17.0138 -18.509 9.55143 -2.97049 -0.857688
lowerback -3.59804 1.40955 -0.520032
upperback -1.45102 1.89687 -0.0695204
thorax 0.513707 0.949893 0.29512
lowerneck -5.42581 -1.69641 0.836939
upperneck -10.6242 -2.17862 1.56453
head -2.41778 -1.15093 0.36491
rclavicle -2.32702e-014 -5.96354e-015
rhumerus -39.1888 7.33418 -95.6627
rradius 38.8076
rwrist 12.3432
rhand -21.3755 -19.5645
rfingers 7.12502
rthumb 5.01179 -49.4853
lclavicle -2.32702e-014 -5.96354e-015
lhumerus -40.209 -15.9812 93.2576
lradius 43.2356
lwrist -0.670044
lhand -4.87266 13.4504
lfingers 7.12502
lthumb 20.9158 42.3428
rfemur -20.1858 -7.58351 19.336
rtibia 40.5675
rfoot -20.5177 -14.9633
rtoes -5.51359
lfemur -23.4885 5.94487 -21.6861
ltibia 37.8495
lfoot -24.3341 2.04768
ltoes 9.66665
78
root -15.6151 17.0061 -18.5011 9.4934 -2.69226 -0.921597
lowerback -3.5696 1.37747 -0.368084
upperback -1.39089 1.84905 -0.064362
thorax 0.564513 0.925364 0.213785
lowerneck -5.4715 -1.70594 0.79419
upperneck -10.5861 -2.19325 1.5312
head -2.39693 -1.15529 0.360722
rclavicle -1.58158e-014 8.54774e-015
rhumerus -39.0828 7.30058 -95.5972
rradius 38.8769
rwrist 12.2612
rhand -21.2689 -19.6641
rfingers 7.12502
rthumb 5.11473 -49.5824
lclavicle -1.58158e-014 8.54774e-015
lhumerus -40.0557 -15.3683 92.8049
lradius 43.4781
lwrist -0.540612
lhand -5.1316 13.2855
lfingers 7.12502
lthumb 20.667 42.2051
rfemur -19.704 -7.17461 19.3664
rtibia 40.0425
rfoot -20.9012 -15.0253
rtoes -4.28205
lfemur -23.7945 5.91201 -21.5456
ltibia 38.519
lfoot -24.3396 1.92228
ltoes 9.42063
79
root -15.6282 16.9979 -18.4943 9.45239 -2.3602 -1.0668
lowerback -3.54309 1.33771 -0.141275
upperback -1.32512 1.78818 -0.0242349
thorax 0.623135 0.894361 0.125943
lowerneck -5.5647 -1.72056 0.737417
upperneck -10.5234 -2.21525 1.49425
head -2.35948 -1.16242 0.356995
rclavicle -6.1499e-015 1.88845e-015
rhumerus -38.9706 7.29153 -95.5066
rradius 38.9795
rwrist 12.2305
rhand -21.1369 -19.7323
rfingers 7.12502
rthumb 5.24218 -49.6475
lclavicle -6.1499e-015 1.88845e-015
lhumerus -39.8873 -14.7433 92.3762
lradius 43.7154
lwrist -0.3551
lhand -5.467 12.975
lfingers 7.12502
lthumb 20.3447 41.9293
rfemur -19.2208 -6.8579 19.5313
rtibia 39.4538
rfoot -21.3287 -15.1267
rtoes -2.50149
lfemur -24.2369 5.88543 -21.3189
ltibia 39.3781
lfoot -24.3366 1.76321
ltoes 9.15681
